<svg xmlns="http://www.w3.org/2000/svg" viewBox="0 0 228.88 228.88"><title>instagram</title><g id="Layer_2" data-name="Layer 2"><g id="Layer_1-2" data-name="Layer 1"><path d="M114.44,0c-31.08,0-35,.13-47.18.69S46.76,3.18,39.48,6a56.1,56.1,0,0,0-20.27,13.2A56.1,56.1,0,0,0,6,39.48C3.18,46.76,1.24,55.08.69,67.26S0,83.36,0,114.44s.13,35,.69,47.18S3.18,182.13,6,189.4a56.1,56.1,0,0,0,13.2,20.27,56.1,56.1,0,0,0,20.27,13.2c7.28,2.83,15.6,4.76,27.78,5.32s16.1.69,47.18.69,35-.13,47.18-.69,20.5-2.49,27.78-5.32a58.52,58.52,0,0,0,33.47-33.47c2.83-7.28,4.76-15.6,5.32-27.78s.69-16.1.69-47.18-.13-35-.69-47.18-2.49-20.5-5.32-27.78a56.1,56.1,0,0,0-13.2-20.27A56.1,56.1,0,0,0,189.4,6c-7.28-2.83-15.6-4.76-27.78-5.32S145.52,0,114.44,0Zm0,20.62c30.56,0,34.18.12,46.24.67,11.16.51,17.22,2.37,21.25,3.94a35.46,35.46,0,0,1,13.16,8.56,35.46,35.46,0,0,1,8.56,13.16c1.57,4,3.43,10.09,3.94,21.25.55,12.07.67,15.69.67,46.24s-.12,34.18-.67,46.24c-.51,11.16-2.37,17.22-3.94,21.25a37.9,37.9,0,0,1-21.72,21.72c-4,1.57-10.09,3.43-21.25,3.94-12.07.55-15.68.67-46.24.67s-34.18-.12-46.24-.67C57,207.09,51,205.22,46.95,203.65a35.45,35.45,0,0,1-13.16-8.56,35.46,35.46,0,0,1-8.56-13.16c-1.57-4-3.43-10.09-3.94-21.25-.55-12.07-.67-15.69-.67-46.24s.12-34.18.67-46.24C21.8,57,23.66,51,25.23,46.95a35.46,35.46,0,0,1,8.56-13.16,35.46,35.46,0,0,1,13.16-8.56C51,23.66,57,21.8,68.2,21.29c12.07-.55,15.69-.67,46.24-.67"/><path d="M114.44,152.59a38.15,38.15,0,1,1,38.15-38.15,38.15,38.15,0,0,1-38.15,38.15Zm0-96.91a58.77,58.77,0,1,0,58.77,58.77,58.77,58.77,0,0,0-58.77-58.77Z"/><path d="M189.26,53.35a13.73,13.73,0,1,1-13.73-13.73,13.73,13.73,0,0,1,13.73,13.73Z"/></g></g></svg>