<svg xmlns="http://www.w3.org/2000/svg" viewBox="0 0 316.25 221.38"><title>youtube</title><g id="Layer_2" data-name="Layer 2"><g id="Layer_1-2" data-name="Layer 1"><path d="M309.64,34.57a39.61,39.61,0,0,0-28-28C257,0,158.13,0,158.13,0S59.23,0,34.57,6.61a39.61,39.61,0,0,0-28,28C0,59.23,0,110.69,0,110.69s0,51.46,6.61,76.12a39.61,39.61,0,0,0,28,28c24.66,6.61,123.56,6.61,123.56,6.61s98.9,0,123.56-6.61a39.61,39.61,0,0,0,28-28c6.61-24.66,6.61-76.12,6.61-76.12S316.25,59.23,309.64,34.57ZM126.5,158.13V63.25l82.16,47.44Z"/></g></g></svg>