<svg xmlns="http://www.w3.org/2000/svg" viewBox="0 0 2431.32 1549.72"><defs><style>.cls-1{fill:#a31a1a;}.cls-2{font-size:190.55px;font-family:Qanelas-Bold, Qanelas;font-weight:700;letter-spacing:0.05em;}.cls-3{letter-spacing:0.02em;}.cls-4{letter-spacing:0.05em;}.cls-5{letter-spacing:0.03em;}.cls-6{letter-spacing:0.05em;}</style></defs><title>logo-new_1</title><g id="Layer_2" data-name="Layer 2"><g id="Layer_1-2" data-name="Layer 1"><path d="M1083.87,833.72c-13.12,32.36-24.2,97.64-58.59,106.79-26.3,7-103.3-150.68-96.3-161.2a117.15,117.15,0,0,1,9.62-12.14c28-35.6,56.2-67.8,60.44-119.11,8-97.5-51.8-117-91.48-97.5C827.79,589.84,807.3,669.15,805.83,662.06c-10.25-49.43,31.87-410.2,44.39-490.33,2.87-18.39-38.73-11-43-.68C768,266.95,644.84,882.33,665.5,1062.56c3.6,31.44,48.67,42.67,75.63,23.24l70.16-50.57c12.92-9.32,19.79-23.94,18.23-39-.37-3.61-.4-7.69-1.11-12.19-26.26-166.58,27-174.19,43.46-160.24,16.77,14.19,77.32,179.05,122.79,182.29,43.72,5.66,76.08-83.33,89.2-114.07,4.37-11.33,13.12-42.88,14-51C1099.61,818.35,1089.11,814.3,1083.87,833.72ZM865.46,719.2C791,679.58,1006,484.35,948,635.8,939.61,657.59,894.65,734.73,865.46,719.2Z"/><path class="cls-1" d="M1261,442.4c-109.44,42.32-98.34,516-49.23,533.42,18.08,6.41,35.66-.86,45.94-30.76C1293.09,842.08,1319.25,419.86,1261,442.4Z"/><path class="cls-1" d="M1502.64,186.62c-11.33-1-21.14,13.82-26,20.5.32-14.92-16.83-51.08-25.9-68.27-10.88,12.34-36.28,19.55-53.23,25.86-14.7-25.26-20.79-58.47-20.79-82-32.63.59-63.4,17-83.39,31-16.61-8.32-32.63-29.33-42.66-42.46-11.55,17.29-26.48,32.19-48.83,41.32-16.4-7.13-27.79-18.63-33.12-33.2C1143.35,90.78,1125.2,126,1125.2,126s-25.11-30.16-55.37-27.63c11.62,360.41-31.23,1105.16-31.23,1105.16s39.14-31.42,53.42-30.78c1.35,20.08,8.91,40.86,24.71,64.78,12.72-15,35.17-32.42,54.86-34.13,1.53,9.79,4.05,29.11,22.1,42.94,10.07-20.57,22.46-26.87,32.1-31,11.13,11.53,21.21,37,17.18,63,21.8-9.06,40-20.56,52.16-39.67,10.69,3.86,16.6,16,23.56,35.36,26-8.55,33.75-21.75,36.76-32.11,9.9,7.6,23,30.09,26.56,43.2,17-15.45,37.61-21.33,39.12-39.73,18.83,24.25,46.93,41.74,46.93,41.74C1467.33,980.36,1468.75,501,1502.64,186.62ZM1291.9,1020.39c-28,13-115.48,27.58-144.93-40.91-56.35-131-58.36-768.77,212.54-544.61C1464.67,521.88,1457.82,943.51,1291.9,1020.39Z"/><path d="M368.95,961.57C602.35,854.59,7.37,627.94,7.37,419.92c0-259.45,314.79-509.19,517.34-388.76,140.72,83.67-17,414.09-124.67,430.63l-1.39.12c-40.35,3.31-60.11-43-29-66.43,80.84-60.83,212.92-223.12,120.12-299.41C397.7,20.39,213.69,222.49,216.55,378c2.53,137.75,419.58,272.15,419.58,462.78,0,148.75-196.94,273.25-365.76,245.71C18.65,1045-113.71,772.62,126.29,716.13c53.85-12.67,92.08,26.68,14.11,62.07C-22.8,852.28,230,1025.25,368.95,961.57Z"/><path d="M2412.64,814.23c-20,56.39-28.82,103.48-55.31,146.77-21.58,35.26-36.24,19.31-32.43-27.81,1.91-22.4,11.45-160.67,1.91-200.07-6.67-28.58-44.82-73.38-88.69-49.44-15.26,7.73-61,33.22-129.7,141.36-31.47,65.66,34-378.06,45.19-435.18,1.29-6.57-5.56-12.22-13.73-11.53-65.1,5.54-91.94,28.55-133.49,169.4-9.44,32-111.22,435-11.45,543.81,19.88,21.68,97.26-54,97.28-78.79.06-59,6.67-101.19,29.56-148.31,1.91-12.36,85.27-144.73,128.32-138.49,35.85,5.19-26.85,111.68-26.85,177.33,0,49.44,8.5,101.35,85.46,107.16,48.5,3.66,68.73-34.22,78.2-56.39,14.31-33.52,31.25-98.37,43.87-139C2434.38,803.35,2419.31,791.06,2412.64,814.23Z"/><path d="M1971.71,923.78c-15.09,47.72-72.55,126.94-136.46,119.33-20-2.38-101.09-20.25-73.85-185.41,20.28-123,49.71-168.72,82.79-162.62,79.47,14.66-4.37,141.3,28.77,139.17,69.09-4.44,67.83-150.07,5.16-179.71C1822.35,628.14,1759,638.31,1722,697c-68.21,106.6-89.58,231.74-51,305.12,14.8,26.27,52.24,60.23,83.82,74.93,126.37,58.8,188.62-35.51,218.24-117.5C1972.07,944.44,1971.62,939.85,1971.71,923.78Z"/><path d="M1808.08,349.89c-31.47,4.54-89.75,13.73-114.78,17.06,2.93-12.52,32.36-103.89,44.29-142a13.6,13.6,0,0,0-15.17-17.49l-71.07,11.59a23.94,23.94,0,0,0-18.72,15.56c-22.23,62.35-45.07,150.24-45.07,150.24l-75.62,16.39a5.63,5.63,0,0,0-3.9,6c.46,5.6,1.25,15,2,21.73.32,3,2.76,5.09,5.5,4.62,13-2.2,56.93-13.67,67-13.86-19.92,99.72-80,298.35-71.6,498.74,4.49,106.87,34.84,172.78,113.18,176.75,64.47,3.26,68-35.39,73.35-96.8.35-4,1.06-8-1-11.37L1688,972.92s-14.1,59.65-27.63,71.06c-5.68,4.79-14.57,2.86-18.85-3.15-62.77-88.09-2.59-482.06,44.35-640.57,22.27-4.11,86.75-16,125-23.64,4.38-.88,7.49-5.24,7.2-10.13l-.45-7.78C1817.28,353.28,1813,349.19,1808.08,349.89Z"/><text class="cls-2" transform="translate(614.63 1499.6)">P<tspan class="cls-3" x="121.57" y="0">R</tspan><tspan x="245.24" y="0">O</tspan><tspan class="cls-4" x="405.69" y="0">D</tspan><tspan x="553.94" y="0">U</tspan><tspan class="cls-5" x="681.61" y="0">C</tspan><tspan class="cls-6" x="830.62" y="0">TION</tspan></text></g></g></svg>